<svg id="Layer_1" data-name="Layer 1" xmlns="http://www.w3.org/2000/svg" viewBox="60 80 550 500">
    <defs>
        <style>
            .cls-1,.cls-2,.cls-6{fill:#35342e;}.cls-1{opacity:0.1;}.cls-2{opacity:0.07;}.cls-3,.cls-7{fill:#c2b678;}.cls-4{opacity:0.12;}.cls-5{fill:#fffbf7;}
        </style>
    </defs>
    <ellipse class="cls-1" cx="347.08" cy="573.84" rx="120.39" ry="22.88"/>
    <path
          d="M463.87,281.26a110,110,0,0,1-.36,11.69,116.06,116.06,0,0,1-69.4,96.9q0,4.36-.07,8.73c0,3.66-.07,7.31-.1,11a133.77,133.77,0,0,1-31.61,7.52q0-5.31.1-10.62l.06-7.9a115.68,115.68,0,0,1-24.23.51q-4.85-.39-9.52-1.19l.06,8.49.09,10.28a130.43,130.43,0,0,1-31.62-8.5l-.09-9.91c0-3.55-.06-7.09-.08-10.64-38.53-19.18-63.71-59.1-65.25-100.78-.06-1.18-.08-2.37-.08-3.55l-13.53-36.69a132.55,132.55,0,0,1,19.27-38.95l8.1,22c14.95-27.18,41-48.79,73.37-58.7.59-1.3,2-4.82.49-7.91-2.1-4.42-9.43-6.78-17.2-3.59a24.3,24.3,0,0,1,17.92-5c12,1.63,17.48,12,18,13a87.92,87.92,0,0,1,19.22.32c30.69,3.92,70.28,25.9,91.5,61.68l7.44-20.19a128.4,128.4,0,0,1,19.63,38Q469.9,263.59,463.83,280h0C463.85,280.44,463.86,280.85,463.87,281.26Z"/>
    <path
          d="M283.62,349.4C278,354,263.28,347.72,255,338.65A36.08,36.08,0,0,1,247.17,325q-7.71-20.88-15.4-41.77l-13.53-36.69L169.41,114.09c-5.5-10.17-.59-21.9,7.39-25s19.73,2.57,22.22,14l38.49,104.44,8.1,22q15.58,42.25,31.16,84.53C286.76,330.29,289,345.06,283.62,349.4Z"/>
    <path
          d="M525,114.09,476,247.15Q469.9,263.59,463.83,280h0q-8.28,22.5-16.58,45a36.36,36.36,0,0,1-7.78,13.62c-8.33,9.07-23.08,15.32-28.68,10.75-5.32-4.34-3.14-19.11,6.86-35.27q15.62-42.39,31.24-84.76l7.44-20.19q19.53-53,39.07-106c2.48-11.47,14.14-17.13,22.22-14S530.5,103.92,525,114.09Z"/>
    <path
          d="M330.21,575.45l-31.55.26c-13.4.62-40.55,1.34-41.56-4.05-1.1-5.86,29.27-16.16,41.36-20.07q-.6-71.73-1.19-143.45-.09-10.27-.17-20.55-.15-18.34-.31-36.69c-3.94-18.59-1-33.23,5.48-35.52,6.81-2.4,18.58,8.46,23.35,19.82a36.21,36.21,0,0,1,2.72,15.44q.2,23.63.4,47.23l.15,18.77Q329.54,496.05,330.21,575.45Z"/>
    <path
          d="M434.14,570.94c-1,5.39-28.17,4.68-41.57,4L361,574.74q.66-78.84,1.3-157.67.07-9.27.16-18.52.19-24.32.4-48.63a36.55,36.55,0,0,1,2.72-15.44c4.77-11.36,16.54-22.22,23.36-19.82,6.48,2.3,9.41,16.93,5.47,35.52l-.33,39.67q-.09,9.86-.17,19.7-.58,70.65-1.16,141.32C404.86,554.78,435.23,565.08,434.14,570.94Z"/>
    <path
          d="M463.51,293A115.95,115.95,0,0,1,338.26,399.06q-4.85-.39-9.52-1.19a112.17,112.17,0,0,1-31.64-10.28c-38.53-19.18-63.71-59.1-65.25-100.78-.06-1.18-.08-2.37-.08-3.55q0-4.72.37-9.46a110.65,110.65,0,0,1,13.47-44.2c14.95-27.18,41-48.79,73.37-58.7.59-1.3,2-4.82.49-7.91-2.1-4.42-9.43-6.78-17.2-3.59a24.3,24.3,0,0,1,17.92-5c12,1.63,17.48,12,18,13a87.92,87.92,0,0,1,19.22.32c30.69,3.92,70.28,25.9,91.5,61.68A105.3,105.3,0,0,1,463.83,280h0c0,.4,0,.81,0,1.22A110,110,0,0,1,463.51,293Z"/>
    <path
          d="M463.51,293a116.06,116.06,0,0,1-69.4,96.9q0,4.36-.07,8.73a133.28,133.28,0,0,1-31.1,7.81l-.51.06.06-7.9a115.68,115.68,0,0,1-24.23.51q-4.85-.39-9.52-1.19l.06,8.49c-1.72-.23-3.43-.48-5.12-.76a130.21,130.21,0,0,1-22.45-5.84c-1.43-.51-2.79-1-4.05-1.53,0-3.55-.06-7.09-.08-10.64-38.53-19.18-63.71-59.1-65.25-100.78,23.76,14.42,63.68,32.42,115.25,31.57,53.74-.89,94.11-21.84,116.77-37.12A110,110,0,0,1,463.51,293Z"/>
    <circle class="cls-5" cx="368.23" cy="259.78" r="18.64"/>
    <circle class="cls-6" cx="368.23" cy="259.78" r="9.32"/>
    <circle class="cls-5" cx="325.21" cy="259.78" r="18.64"/>
    <circle class="cls-6" cx="325.21" cy="259.78" r="9.32"/>
    <path class="cls-6"
          d="M331.29,293.52a18.92,18.92,0,0,0,12.09,14.53,17.13,17.13,0,0,0,18-4.35,19,19,0,0,0,5.07-10.18c.3-1.89-2.59-2.7-2.9-.8-1.16,7.26-7.09,13.45-14.73,13.32s-13.41-6.17-14.64-13.32c-.32-1.9-3.22-1.09-2.89.8Z"/>
</svg>