<svg id="Layer_1" data-name="Layer 1" xmlns="http://www.w3.org/2000/svg" viewBox="120 80 500 500">
    <defs>
        <style>.cls-1,.cls-5{fill:#35342e;}.cls-1{opacity:0.1;}.cls-2,.cls-6{fill:#c2b678;}.cls-3{opacity:0.12;}.cls-4{fill:#fffbf7;}.cls-6{fill:#fffbf7;}
        </style>
    </defs>
    <ellipse class="cls-1" cx="376.14" cy="546.05" rx="120.39" ry="22.88"/>
    <path
          d="M361.44,551.4l-31.55.29c-13.4.64-40.55,1.38-41.57-4-1.1-5.86,29.26-16.19,41.35-20.11q-.66-71.73-1.33-143.44-.09-10.28-.19-20.55-.16-18.34-.34-36.7c-4-18.58-1-33.22,5.44-35.52,6.81-2.41,18.59,8.44,23.37,19.79a36.47,36.47,0,0,1,2.74,15.44q.21,23.63.44,47.24.07,9.38.16,18.76Q360.7,472,361.44,551.4Z"/>
    <path
          d="M465.36,546.8c-1,5.39-28.16,4.7-41.56,4.09l-31.54-.23q.57-78.84,1.15-157.67.07-9.25.14-18.52l.36-48.63a36.32,36.32,0,0,1,2.7-15.44c4.76-11.36,16.52-22.24,23.34-19.84,6.48,2.29,9.43,16.92,5.5,35.51q-.13,19.83-.29,39.67-.07,9.86-.14,19.7-.52,70.65-1,141.32C436.07,530.66,466.45,540.93,465.36,546.8Z"/>
    <path
          d="M494.47,268.77a116,116,0,0,1-69.31,97,114.84,114.84,0,0,1-31.61,8.73,116.32,116.32,0,0,1-24.23.54c-3.23-.26-6.4-.66-9.52-1.18a112.29,112.29,0,0,1-31.65-10.25c-38.54-19.15-63.77-59-65.35-100.72-.05-1.19-.07-2.37-.08-3.55,0-3.15.1-6.31.36-9.46a110.74,110.74,0,0,1,13.43-44.22c14.92-27.2,41-48.83,73.32-58.77.59-1.3,1.95-4.82.48-7.91-2.11-4.42-9.44-6.76-17.21-3.57a24.33,24.33,0,0,1,17.92-5c12,1.62,17.49,12,18,13a87.78,87.78,0,0,1,19.22.3c30.69,3.9,70.31,25.84,91.56,61.6a105.37,105.37,0,0,1,15,50.65h0c0,.4,0,.81,0,1.21A109.84,109.84,0,0,1,494.47,268.77Z"/>
    <path
          d="M584,298.74c3-6.3,1.93-12.82,1.43-15.06-1.54-7-6.74-15.38-46.32-34.51-7.68-3.72-18.59-8.77-32-14.24h0l-43.81-19.48a36.24,36.24,0,0,0-15.18-3.91c-12.32-.36-27.08,5.86-27.71,13.06-.6,6.85,11.51,15.58,30.07,19.68,14.13,6.1,36,15.43,63.3,26.51,28.45,11.56,36.86,14.24,36.56,17.2-.49,5-25.19,9.66-138.37,7.17-11.55-.09-18.75,8.43-17.93,14.34.71,5.06,7.56,10.21,16.49,10,33.74-.44,72.88-1.3,117.59-2.87C548.76,315.94,576.35,314.65,584,298.74Z"/>
    <path
          d="M173.71,298.74c-3-6.3-1.93-12.82-1.43-15.06,1.54-7,6.74-15.38,46.32-34.51,7.68-3.72,18.59-8.77,32-14.24h0l43.82-19.48a36.24,36.24,0,0,1,15.18-3.91c12.32-.36,27.08,5.86,27.71,13.06.6,6.85-11.52,15.58-30.07,19.68-14.13,6.1-36,15.43-63.3,26.51C215.52,282.34,207.11,285,207.41,288c.49,5,25.19,9.66,138.37,7.17,11.55-.09,18.75,8.43,17.93,14.34-.71,5.06-7.56,10.21-16.49,10-33.74-.44-72.88-1.3-117.59-2.87C208.94,315.94,181.35,314.65,173.71,298.74Z"/>
    <path
          d="M494.47,268.77a116,116,0,0,1-69.31,97l-.06,8.74a133.56,133.56,0,0,1-31.1,7.83l-.5.06c0-2.63,0-5.27.05-7.9a116.32,116.32,0,0,1-24.23.54c-3.23-.26-6.4-.66-9.52-1.18,0,2.82.05,5.65.07,8.48-1.72-.22-3.43-.47-5.12-.75a130.85,130.85,0,0,1-22.45-5.82c-1.44-.51-2.79-1-4.06-1.52l-.09-10.64c-38.54-19.15-63.77-59-65.35-100.72,23.78,14.39,63.71,32.36,115.28,31.45,53.75-.94,94.1-21.93,116.74-37.23A109.84,109.84,0,0,1,494.47,268.77Z"/>
    <circle  fill="#fff" cx="399.16" cy="235.7" r="18.64"/>
    <circle class="cls-6" cx="399.16" cy="235.7" r="9.32"/>
    <circle fill="#fff" cx="356.14" cy="235.74" r="18.64"/>
    <circle class="cls-6" cx="356.14" cy="235.74" r="9.32"/>
    <path class="cls-6"
          d="M362.25,269.47A18.92,18.92,0,0,0,374.35,284a17.15,17.15,0,0,0,18-4.36,19.06,19.06,0,0,0,5.06-10.19c.3-1.89-2.59-2.71-2.9-.8-1.15,7.26-7.08,13.45-14.72,13.33s-13.41-6.15-14.65-13.3c-.33-1.9-3.22-1.09-2.89.8Z"/>
</svg>