<svg id="Layer_1" data-name="Layer 1" xmlns="http://www.w3.org/2000/svg" viewBox="120 80 500 500">
    <defs>
        <style>
            .cls-1,.cls-3,.cls-6{fill:#35342e;}.cls-1{opacity:0.1;}.cls-2,.cls-8{fill:#c2b678;}.cls-3,.cls-7{opacity:0.08;}.cls-4{fill:#fcce5b;opacity:0.6;}.cls-5{fill:#fffbf7;}
        </style>
    </defs>
    <ellipse class="cls-1" cx="368.32" cy="555.41" rx="120.39" ry="22.88"/>
    <path
          d="M292.58,401c-.09,3.63-.18,7.29-.3,10.92,0,.88,0,1.73-.06,2.57-.12,5.48-.28,11-.43,16.45q-1.17,46.14-2.39,92.27c1.34,11.65-7.89,20.75-16.54,20.42s-16.93-9.83-15-21.23q1.59-60.48,3.15-120.91.5-20.42,1.06-40.86a4,4,0,0,1,0-.6A116.86,116.86,0,0,0,292.58,401Z"/>
    <path
          d="M451.25,538.61c-8.67.33-17.88-8.79-16.56-20.43l-2.1-80.75c0-.53,0-1.11,0-1.65q-.37-14.29-.74-28.6a108.55,108.55,0,0,0,11.76-9c.78-.71,2-1.86,3.51-3.43l1.2-1.2c1.23-1.32,2.6-2.85,4.08-4.58.54-.58,1-1.2,1.53-1.82,1-1.23,2.11-2.55,3.22-4s2.23-2.93,3.34-4.5c.17-.25.37-.49.58-.78.54-.71,1-1.45,1.53-2.19v.58a7.24,7.24,0,0,0,0,.95V378c.29,11.19.62,22.38.87,33.56,0,.37,0,.79,0,1.16q1.37,52.32,2.72,104.64C468.17,528.79,459.75,538.28,451.25,538.61Z"/>
    <path
          d="M350.07,556.23q-15.78.09-31.54.24c-13.4.64-40.56,1.33-41.55-4.05-1.12-5.87,29.27-16.15,41.34-20.08Q318,499.67,317.8,467a2.42,2.42,0,0,1,0-.48v-.91l-.18-20.05c-.06-9.31-.15-18.66-.21-28a129.62,129.62,0,0,0,21.56,8.62c1.48.27,5,.87,10.07,1.3,0,4,.06,8,.09,11.91l.09,12c.06,4.35.09,8.68.12,13v.4Q349.69,510.52,350.07,556.23Z"/>
    <path
          d="M454,551.69c-1,5.42-28.15,4.69-41.58,4.06l-31.54-.25q.45-50.16.84-100.37c.07-8.8.16-17.6.22-26.43,0-.76,0-1.55,0-2.3a126.46,126.46,0,0,0,31.6-9.13v.63c-.09,9.25-.15,18.54-.21,27.79q-.36,43-.73,85.95C424.74,535.54,455.1,545.83,454,551.69Z"/>
    <path
          d="M483.82,315.87a93.43,93.43,0,0,1-2.52,18.49,95.69,95.69,0,0,1-2.68,9.45A130.28,130.28,0,0,1,464.25,373c-1.07,1.69-2.19,3.26-3.22,4.79-.21.29-.41.53-.58.78-1.15,1.57-2.27,3.1-3.34,4.5s-2.19,2.77-3.22,4c-.5.62-1,1.24-1.53,1.82-1.48,1.73-2.85,3.26-4.08,4.58l-1.2,1.2c-1.49,1.57-2.73,2.72-3.51,3.43a108.55,108.55,0,0,1-11.76,9c-1.45,1-2.94,2-4.42,2.89a1,1,0,0,0-.21.12c-.33.21-.66.41-1,.58a119.49,119.49,0,0,1-12.59,6.48h0A125.4,125.4,0,0,1,382,426.41a141,141,0,0,1-33,1.12c-.62,0-1.24-.13-1.82-.17-1.15-.12-2.23-.25-3.18-.37-.49-.08-1-.12-1.4-.16l-3-.5-.66-.12c-3.84-1.16-7.52-2.44-11.11-3.88-1.81-.75-3.59-1.49-5.32-2.27s-3.43-1.57-5.12-2.44A123.07,123.07,0,0,1,292.57,401c-1.65-1.4-3.22-2.89-4.79-4.37a120.47,120.47,0,0,1-9-9.78c-1-1.24-2.06-2.48-3-3.76-.21-.25-.41-.54-.62-.83L274,380.76q-1.31-1.8-2.48-3.59c-.25-.38-.5-.71-.7-1-.79-1.19-1.53-2.35-2.23-3.55-.13-.24-.29-.49-.46-.78-.29-.45-.53-.95-.82-1.4-.79-1.32-1.49-2.69-2.19-4a10.3,10.3,0,0,1-.58-1.15c-.78-1.45-1.48-2.94-2.14-4.42a5.27,5.27,0,0,1-.33-.74,113.32,113.32,0,0,1,19.36-123.1,129.93,129.93,0,0,1,16.26-15.27c1.11-.87,2.27-1.74,3.38-2.6A108.61,108.61,0,0,1,338,201.23c29.84-7.88,61.46-2.56,87.63,12.51,23.53,13.5,42.56,34.8,51.93,61.34.05.13.13.25.17.37A112.39,112.39,0,0,1,483.82,315.87Z"/>
    <path
          d="M463.51,412.71a196.31,196.31,0,0,1-30.92,24.72c0-.53,0-1.11,0-1.65q-.37-14.29-.74-28.6a108.55,108.55,0,0,0,11.76-9c.78-.71,2-1.86,3.51-3.43l1.2-1.2c1.23-1.32,2.6-2.85,4.08-4.58.54-.58,1-1.2,1.53-1.82,1-1.23,2.11-2.55,3.22-4s2.23-2.93,3.34-4.5c.17-.25.37-.49.58-.78.54-.71,1-1.45,1.53-2.19v.58a7.24,7.24,0,0,0,0,.95V378c.29,11.19.62,22.38.87,33.56C463.47,411.92,463.51,412.34,463.51,412.71Z"/>
    <path
          d="M338.94,426.22c1.48.27,5,.87,10.07,1.3,0,4,.06,8,.09,11.91l.09,12a58.9,58.9,0,0,1-23.31-2.48,62,62,0,0,1-8.29-3.36c-.06-9.31-.15-18.66-.21-28A129.62,129.62,0,0,0,338.94,426.22Z"/>
    <path
          d="M292.58,401c-.12,4.51-.24,9-.36,13.49-.12,5.48-.28,11-.43,16.45A142.44,142.44,0,0,1,261,401.48q.5-20.42,1.06-40.86a109.13,109.13,0,0,1-10.35-46.75,113.44,113.44,0,0,1,1.45-16.94A114.67,114.67,0,0,0,262.1,360,116.86,116.86,0,0,0,292.58,401Z"/>
    <path
          d="M413.58,417.27a120,120,0,0,0,13.58-7.08,140,140,0,0,1-13.58,7.71c-.09,9.25-.15,18.54-.21,27.79a131.37,131.37,0,0,1-31.64,9.44c.07-8.8.16-17.6.22-26.43,0-.76,0-1.55,0-2.3A126.46,126.46,0,0,0,413.58,417.27Z"/>
    <path class="cls-4" d="M292.58,400.72a128.09,128.09,0,0,0,24.8,16.73v.15A123.16,123.16,0,0,1,292.58,401Z"/>
    <path class="cls-4" d="M427.4,451.32c1.48-.94,3-1.94,4.42-3v.12C430.33,449.47,428.88,450.41,427.4,451.32Z"/>
    <ellipse class="cls-5" cx="385.39" cy="396.77" rx="18.64" ry="7.78"/>
    <ellipse class="cls-6" cx="385.39" cy="396.77" rx="9.32" ry="3.89"/>
    <ellipse class="cls-5" cx="342.38" cy="396.81" rx="18.64" ry="7.78"/>
    <ellipse class="cls-6" cx="342.38" cy="396.81" rx="9.32" ry="3.89"/>
    <g class="cls-7">
        <path class="cls-6"
              d="M377.28,262.5c1.94-7.8-4.73-14-11.7-15.82-6.59-1.69-14.37-.28-20.19-4.38l-3,5.18c6.87,3.9,7.09,13,7.27,19.94.1,3.86,6.1,3.87,6,0-.24-9.22-1.3-20-10.24-25.12a3,3,0,1,0-3,5.18c5.5,3.87,12.3,3.51,18.65,4.4,2.82.4,6,1.12,8.09,3.07a8.19,8.19,0,0,1,2.18,3,4.73,4.73,0,0,1,.22,3c-.94,3.75,4.85,5.35,5.78,1.6Z"/>
    </g>
</svg>