<svg width="113" height="51" viewBox="0 0 113 51" fill="none" xmlns="http://www.w3.org/2000/svg">
<g clip-path="url(#clip0_713_191)">
<path d="M40.3096 49.5774H10.3247C5.40614 49.5774 1.41333 45.5657 1.41333 40.608V10.4347C1.41333 5.47699 5.40614 1.45816 10.3247 1.45816H40.3026C45.2282 1.45816 49.214 5.47699 49.214 10.4276V40.6008C49.221 45.5657 45.2282 49.5774 40.3096 49.5774Z" stroke="white" stroke-width="4" stroke-miterlimit="10" stroke-linecap="round" stroke-linejoin="round"/>
<path d="M30.6421 15.1222H33.3063V9.28955L29.2993 9.28244C23.6175 9.28244 20.925 12.6824 20.925 17.5264V22.1142H16.4658V27.6552H20.9109V41.7532H27.5821V27.6624H32.0272L33.2922 22.1214H27.5821V18.3373C27.5891 16.7937 28.4301 15.1222 30.6421 15.1222Z" fill="white"/>
<path d="M72.6267 18.508C72.8882 17.1209 73.1355 15.7339 73.8846 14.4962C75.5948 11.6866 78.2732 10.6054 81.3543 10.5343C85.5591 10.4276 89.771 10.4347 93.9829 10.5343C96.8379 10.6054 99.382 11.5515 101.12 14.041C102.237 15.6485 102.654 17.4837 102.682 19.3829C102.746 23.4515 102.774 27.5272 102.675 31.5958C102.597 34.8749 101.467 37.6703 98.4209 39.3347C97.0146 40.1029 95.467 40.4372 93.891 40.4586C89.7357 40.5084 85.5803 40.5511 81.425 40.4515C78.3085 40.3803 75.6019 39.3205 73.8705 36.4824C73.1214 35.2519 72.874 33.8577 72.6125 32.4707C72.6267 27.8188 72.6267 23.1598 72.6267 18.508ZM87.6933 13.4008C85.6298 13.4008 83.5663 13.3582 81.5027 13.408C78.2802 13.4862 76.3015 15.0013 75.7149 17.7967C75.5877 18.387 75.4959 18.9988 75.4959 19.6034C75.4747 23.5368 75.4252 27.4703 75.5029 31.3967C75.5807 35.3088 77.5453 37.4 81.2978 37.5423C85.5309 37.6988 89.771 37.6845 94.0041 37.5423C97.1277 37.4356 98.9863 35.9276 99.5799 33.2105C99.6859 32.7268 99.7848 32.2289 99.7919 31.731C99.8131 27.2498 100.06 22.7615 99.6576 18.2875C99.4174 15.6343 97.6577 13.9059 95.0288 13.5431C92.5907 13.2159 90.1385 13.4506 87.6933 13.4008Z" fill="white"/>
<path d="M95.4599 25.5427C95.4457 29.7678 91.9617 33.2389 87.6863 33.2887C83.3966 33.3385 79.8349 29.7749 79.849 25.4431C79.8632 21.1824 83.4744 17.6117 87.7004 17.6971C92.0395 17.7753 95.4669 21.2465 95.4599 25.5427ZM92.5624 25.5C92.5695 22.8113 90.3646 20.6063 87.6651 20.5921C84.9796 20.5778 82.7465 22.79 82.7394 25.4716C82.7323 28.1603 84.9372 30.3653 87.6368 30.3795C90.3293 30.3937 92.5624 28.1816 92.5624 25.5Z" fill="white"/>
<path d="M95.6719 15.6414C96.7036 15.6272 97.5799 16.4879 97.5799 17.5193C97.5729 18.5009 96.7319 19.3473 95.7355 19.3757C94.7037 19.4042 93.8062 18.5578 93.7921 17.5335C93.7638 16.495 94.6048 15.6557 95.6719 15.6414Z" fill="white"/>
<path d="M102.675 49.5419H72.6974C67.7718 49.5419 63.786 45.523 63.786 40.5724V10.3921C63.779 5.44144 67.7718 1.42261 72.6974 1.42261H102.675C107.601 1.42261 111.587 5.44144 111.587 10.3921V40.5653C111.587 45.523 107.601 49.5419 102.675 49.5419Z" stroke="white" stroke-width="4" stroke-miterlimit="10" stroke-linecap="round" stroke-linejoin="round"/>
</g>
<defs>
<clipPath id="clip0_713_191">
<rect width="113" height="51" fill="white"/>
</clipPath>
</defs>
</svg>
