<svg width="52" height="51" viewBox="0 0 52 51" fill="none" xmlns="http://www.w3.org/2000/svg">
    <path d="M40.3096 49.5774H10.3247C5.40614 49.5774 1.41333 45.5657 1.41333 40.608V10.4347C1.41333 5.47699 5.40614 1.45816 10.3247 1.45816H40.3026C45.2282 1.45816 49.214 5.47699 49.214 10.4276V40.6008C49.221 45.5657 45.2282 49.5774 40.3096 49.5774Z" stroke="white" stroke-width="4" stroke-miterlimit="10" stroke-linecap="round" stroke-linejoin="round"/>
    <path d="M30.6421 15.1222H33.3063V9.28955L29.2993 9.28244C23.6175 9.28244 20.925 12.6824 20.925 17.5264V22.1142H16.4658V27.6552H20.9109V41.7532H27.5821V27.6624H32.0272L33.2922 22.1214H27.5821V18.3373C27.5891 16.7937 28.4301 15.1222 30.6421 15.1222Z" fill="white"/>
</svg>
