<svg width="52" height="51" viewBox="0 0 52 51" fill="none" xmlns="http://www.w3.org/2000/svg">
    <path d="M11.6267 18.508C11.8882 17.1209 12.1356 15.7339 12.8847 14.4962C14.5949 11.6866 17.2732 10.6054 20.3544 10.5343C24.5592 10.4276 28.7711 10.4347 32.983 10.5343C35.838 10.6054 38.3821 11.5515 40.1206 14.041C41.2371 15.6485 41.6541 17.4837 41.6823 19.3829C41.7459 23.4515 41.7742 27.5272 41.6753 31.5958C41.5975 34.8749 40.4668 37.6703 37.421 39.3347C36.0147 40.1029 34.467 40.4372 32.8911 40.4586C28.7358 40.5084 24.5804 40.5511 20.4251 40.4515C17.3085 40.3803 14.6019 39.3205 12.8705 36.4824C12.1214 35.2519 11.8741 33.8577 11.6126 32.4707C11.6267 27.8188 11.6267 23.1598 11.6267 18.508ZM26.6934 13.4008C24.6299 13.4008 22.5663 13.3582 20.5028 13.408C17.2803 13.4862 15.3015 15.0013 14.715 17.7967C14.5878 18.387 14.4959 18.9988 14.4959 19.6034C14.4747 23.5368 14.4252 27.4703 14.503 31.3967C14.5807 35.3088 16.5453 37.4 20.2979 37.5423C24.5309 37.6988 28.7711 37.6845 33.0042 37.5423C36.1277 37.4356 37.9863 35.9276 38.58 33.2105C38.686 32.7268 38.7849 32.2289 38.792 31.731C38.8132 27.2498 39.0605 22.7615 38.6577 18.2875C38.4174 15.6343 36.6578 13.9059 34.0289 13.5431C31.5908 13.2159 29.1386 13.4506 26.6934 13.4008Z" fill="white"/>
    <path d="M34.4599 25.5427C34.4458 29.7678 30.9618 33.2389 26.6863 33.2887C22.3967 33.3385 18.835 29.7749 18.8491 25.4431C18.8632 21.1824 22.4744 17.6117 26.7004 17.6971C31.0395 17.7753 34.467 21.2465 34.4599 25.5427ZM31.5625 25.5C31.5696 22.8113 29.3647 20.6063 26.6651 20.5921C23.9797 20.5778 21.7465 22.79 21.7395 25.4716C21.7324 28.1603 23.9373 30.3653 26.6368 30.3795C29.3293 30.3937 31.5625 28.1816 31.5625 25.5Z" fill="white"/>
    <path d="M34.6719 15.6414C35.7037 15.6272 36.58 16.4879 36.58 17.5193C36.5729 18.5009 35.732 19.3473 34.7355 19.3757C33.7038 19.4042 32.8063 18.5578 32.7921 17.5335C32.7639 16.495 33.6048 15.6557 34.6719 15.6414Z" fill="white"/>
    <path d="M41.6753 49.5419H11.6974C6.77176 49.5419 2.78602 45.523 2.78602 40.5724V10.3921C2.77895 5.44144 6.77176 1.42261 11.6974 1.42261H41.6753C46.6009 1.42261 50.5866 5.44144 50.5866 10.3921V40.5653C50.5866 45.523 46.6009 49.5419 41.6753 49.5419Z" stroke="white" stroke-width="4" stroke-miterlimit="10" stroke-linecap="round" stroke-linejoin="round"/>
</svg>
