<svg width="175" height="172" viewBox="0 0 175 172" fill="none" xmlns="http://www.w3.org/2000/svg">
    <path d="M169.732 85.8277C169.732 40.3763 132.923 3.53064 87.5164 3.53064C42.1099 3.53064 5.30066 40.3763 5.30066 85.8277C5.30066 131.279 42.1099 168.125 87.5164 168.125C132.923 168.125 169.732 131.279 169.732 85.8277Z" fill="#F16063"/>
    <path d="M62.308 89.7891C69.4028 89.7891 75.1542 84.032 75.1542 76.9302C75.1542 69.8284 69.4028 64.0713 62.308 64.0713C55.2132 64.0713 49.4618 69.8284 49.4618 76.9302C49.4618 84.032 55.2132 89.7891 62.308 89.7891Z" fill="#EAC0B3"/>
    <path d="M62.308 87.2173H105.985V151.178C105.985 151.178 96.6254 156.655 84.1465 156.655C71.6677 156.655 62.308 147.713 62.308 147.713V87.2173Z" fill="#EAC0B3"/>
    <path d="M105.5 118.367C105.5 132.216 103.264 130.904 88.7146 130.904C74.165 130.904 67.4516 119.678 67.4516 105.829C67.4516 91.9828 66.8992 79.502 78.6406 79.502C111.843 80.7261 105.5 104.518 105.5 118.367Z" fill="#C99688"/>
    <path d="M133.954 74.6156C133.954 97.561 130.393 125.776 102.131 125.776C73.8695 125.776 60.8384 97.561 60.8384 74.6156C54.6002 47.3547 55.8849 15.2074 98.2773 15.2074C140.67 15.2074 133.954 51.6676 133.954 74.6156Z" fill="#F5D0C5"/>
    <path d="M89.5959 89.438H87.0266C85.6077 89.438 84.4574 90.5894 84.4574 92.0098C84.4574 93.4301 85.6077 94.5816 87.0266 94.5816H89.5959C91.0148 94.5816 92.1651 93.4301 92.1651 92.0098C92.1651 90.5894 91.0148 89.438 89.5959 89.438Z" fill="#EAC0B3"/>
    <path d="M115.426 89.438H112.857C111.438 89.438 110.287 90.5894 110.287 92.0098C110.287 93.4301 111.438 94.5816 112.857 94.5816H115.426C116.845 94.5816 117.995 93.4301 117.995 92.0098C117.995 90.5894 116.845 89.438 115.426 89.438Z" fill="#EAC0B3"/>
    <path fill-rule="evenodd" clip-rule="evenodd" d="M138.622 53.1103C138.62 41.6142 134.008 30.5806 125.781 22.3958C117.554 14.211 106.375 9.53293 94.6609 9.37324C82.9468 9.21356 71.6394 13.5851 63.1843 21.5425C54.7291 29.4999 49.8058 40.4035 49.4791 51.8952H49.4618V150.324H76.7051V76.4343C82.8596 75.2726 93.4968 72.7159 106.94 67.3059C120.473 61.8595 128.916 56.7121 133.361 53.6061C133.961 59.7403 133.752 66.1467 133.559 72.101C133.47 74.8861 133.383 77.5692 133.383 80.0846C133.383 81.0762 133.364 82.0726 133.322 83.0715C133.894 82.8941 134.429 82.6997 134.904 82.4882C138.619 80.8259 138.619 78.607 138.619 78.607V53.1103H138.622ZM56.8918 72.553C55.1134 73.8584 53.7272 75.6108 52.8796 77.6251C51.8279 80.1177 51.6513 82.8828 52.3778 85.4847C53.1042 88.0865 54.6923 90.3772 56.8918 91.9957V72.553Z" fill="#1B0B47"/>
    <path d="M81.8788 101.54C81.8788 100.858 82.1495 100.204 82.6313 99.7216C83.1131 99.2393 83.7666 98.9684 84.448 98.9684H107.939C108.62 98.9684 109.274 99.2393 109.755 99.7216C110.237 100.204 110.508 100.858 110.508 101.54C110.508 104.951 109.154 108.221 106.745 110.633C104.336 113.044 101.069 114.399 97.6616 114.399H94.725C91.318 114.399 88.0505 113.044 85.6414 110.633C83.2322 108.221 81.8788 104.951 81.8788 101.54Z" fill="#66253C"/>
    <path fill-rule="evenodd" clip-rule="evenodd" d="M101.986 113.653C100.598 114.149 99.1349 114.401 97.6615 114.399H94.7248C91.4068 114.399 88.2174 113.114 85.8247 110.813C83.432 108.512 82.0216 105.373 81.8889 102.055C83.8518 101.319 86.7653 101.404 89.6403 101.489C90.555 101.515 91.4645 101.54 92.338 101.54C98.016 101.54 102.615 105.57 102.615 110.541C102.615 111.634 102.391 112.684 101.986 113.653Z" fill="#B03E67"/>
    <path d="M84.6304 98.9684H110.323V101.54C110.323 102.222 110.052 102.876 109.57 103.359C109.088 103.841 108.435 104.112 107.754 104.112H87.1996C86.5182 104.112 85.8647 103.841 85.3829 103.359C84.9011 102.876 84.6304 102.222 84.6304 101.54V98.9684Z" fill="white"/>
    <path d="M92.3381 79.6801C92.3381 77.5495 90.6127 75.8224 88.4842 75.8224C86.3558 75.8224 84.6304 77.5495 84.6304 79.6801V82.2518C84.6304 84.3824 86.3558 86.1095 88.4842 86.1095C90.6127 86.1095 92.3381 84.3824 92.3381 82.2518V79.6801Z" fill="#1B0B47"/>
    <path d="M118.03 79.6801C118.03 77.5495 116.305 75.8224 114.177 75.8224C112.048 75.8224 110.323 77.5495 110.323 79.6801V82.2518C110.323 84.3824 112.048 86.1095 114.177 86.1095C116.305 86.1095 118.03 84.3824 118.03 82.2518V79.6801Z" fill="#1B0B47"/>
    <path d="M170.622 86.2304C170.622 131.118 133.506 167.637 87.5572 167.637C41.6087 167.637 4.49194 131.118 4.49194 86.2304C4.49194 41.3428 41.6087 4.82349 87.5572 4.82349C133.506 4.82349 170.622 41.3428 170.622 86.2304Z" stroke="#FFCC12" stroke-width="8"/>
</svg>
