<svg width="356" height="180" viewBox="0 0 356 180" fill="none" xmlns="http://www.w3.org/2000/svg">
    <path d="M12.1471 163.465C5.81522 169.436 -4.66632 165.099 -4.83097 156.44L-7.56687 12.5635C-7.73938 3.49141 3.43567 -1.05211 9.75568 5.52053L83.6152 82.3325C87.4432 86.3135 87.289 92.6122 83.2707 96.4011L12.1471 163.465Z" fill="#31476E"/>
    <path d="M13.9862 113.836L9.51455 109.36L13.9862 104.884C14.5489 104.321 14.5489 103.396 13.9862 102.832C13.4235 102.269 12.499 102.269 11.9363 102.832L7.46461 107.308L2.99294 102.832C2.43022 102.269 1.50576 102.269 0.94304 102.832C0.380315 103.396 0.380315 104.321 0.94304 104.884L5.41468 109.36L0.94304 113.836C0.380315 114.4 0.380315 115.325 0.94304 115.888C1.50576 116.452 2.43022 116.452 2.99294 115.888L7.46461 111.412L11.9363 115.888C12.499 116.452 13.4235 116.452 13.9862 115.888C14.5489 115.325 14.5489 114.4 13.9862 113.836Z" fill="#FFC263"/>
    <path d="M354.826 119.522L350.354 115.046L354.826 110.57C355.389 110.006 355.389 109.081 354.826 108.518C354.263 107.954 353.339 107.954 352.776 108.518L348.304 112.994L343.833 108.518C343.27 107.954 342.346 107.954 341.783 108.518C341.22 109.081 341.22 110.006 341.783 110.57L346.255 115.046L341.783 119.522C341.22 120.085 341.22 121.01 341.783 121.574C342.346 122.137 343.27 122.137 343.833 121.574L348.304 117.098L352.776 121.574C353.339 122.137 354.263 122.137 354.826 121.574C355.389 121.01 355.389 120.085 354.826 119.522Z" fill="#FFC263"/>
    <path d="M84.3873 145.895L79.9156 141.419L84.3873 136.943C84.95 136.38 84.95 135.455 84.3873 134.891C83.8246 134.328 82.9001 134.328 82.3374 134.891L77.8657 139.367L73.3941 134.891C72.8313 134.328 71.9069 134.328 71.3442 134.891C70.7814 135.455 70.7814 136.38 71.3442 136.943L75.8158 141.419L71.3442 145.895C70.7814 146.459 70.7814 147.384 71.3442 147.947C71.9069 148.511 72.8313 148.511 73.3941 147.947L77.8657 143.471L82.3374 147.947C82.9001 148.511 83.8246 148.511 84.3873 147.947C84.95 147.384 84.95 146.469 84.3873 145.895Z" fill="#DA5077"/>
    <path d="M319.806 34.1818C319.806 37.1692 317.395 39.5832 314.41 39.5832C311.426 39.5832 309.014 37.1692 309.014 34.1818C309.014 31.1944 311.426 28.7803 314.41 28.7803C317.395 28.7803 319.806 31.1944 319.806 34.1818Z" fill="#FFC263"/>
    <path d="M99.8019 130.818C99.8019 133.805 97.3902 136.219 94.4058 136.219C91.4213 136.219 89.0096 133.805 89.0096 130.818C89.0096 127.83 91.4213 125.416 94.4058 125.416C97.3802 125.416 99.8019 127.83 99.8019 130.818Z" fill="#DA5077"/>
    <path d="M135.475 38.9121C135.475 41.8995 133.063 44.3135 130.078 44.3135C127.094 44.3135 124.682 41.8995 124.682 38.9121C124.682 35.9247 127.094 33.5106 130.078 33.5106C133.063 33.5106 135.475 35.9247 135.475 38.9121Z" fill="#FFC263"/>
</svg>
